<svg version="1.2" baseProfile="tiny-ps" xmlns="http://www.w3.org/2000/svg" viewBox="0 0 800 800" width="400" height="400">
	<title> Chimney-reapir-vector</title>
	<style>
		tspan { white-space:pre }
		.s0 { mix-blend-mode: multiply;fill: #cadced } 
		.s1 { fill: #ebebeb } 
		.s2 { fill: #c2c2c2 } 
		.s3 { fill: #a1a1a1 } 
		.s4 { mix-blend-mode: multiply;fill: #e8e8e8 } 
		.s5 { opacity: .5;mix-blend-mode: multiply;fill: #9edee8 } 
		.s6 { fill: #f5ddc2 } 
		.s7 { opacity: .7;mix-blend-mode: multiply;fill: #f5ddc2 } 
		.s8 { fill: #f5d4ae } 
		.s9 { fill: #f9f7ef } 
		.s10 { fill: #ffffff } 
		.s11 { opacity: .7;mix-blend-mode: multiply;fill: #d1caba } 
		.s12 { opacity: .5;mix-blend-mode: multiply;fill: #b0a390 } 
		.s13 { fill: #c79472 } 
		.s14 { fill: #ebb58f } 
		.s15 { fill: #e8e8e8 } 
		.s16 { mix-blend-mode: multiply;fill: #e0e0e0 } 
		.s17 { opacity: .6;fill: #ffffff } 
		.s18 { fill: #399600 } 
		.s19 { mix-blend-mode: multiply;fill: #dff0d3 } 
		.s20 { fill: #ffd039 } 
		.s21 { fill: #466646 } 
		.s22 { fill: #403636 } 
		.s23 { fill: #3c4040 } 
		.s24 { fill: #4f5454 } 
		.s25 { opacity: .1;mix-blend-mode: soft-light;fill: #ffffff } 
		.s26 { opacity: .7;mix-blend-mode: multiply;fill: #cfcfcf } 
		.s27 { fill: #787873 } 
		.s28 { opacity: .4;fill: #787873 } 
		.s29 { fill: #96968f } 
		.s30 { fill: #939393 } 
		.s31 { fill: #91918a } 
		.s32 { fill: #1e80c7 } 
		.s33 { mix-blend-mode: multiply;fill: #91c0e3 } 
		.s34 { fill: #3b616b } 
		.s35 { fill: #78a7b3 } 
		.s36 { fill: #4d6a8a } 
		.s37 { fill: #8cafd4 } 
		.s38 { fill: #e8f4ff } 
		.s39 { fill: #fec4ad } 
		.s40 { fill: #ffbc00 } 
		.s41 { fill: #133a50 } 
		.s42 { fill: #004b9a } 
		.s43 { fill: #6b2418 } 
		.s44 { fill: #1c237a } 
		.s45 { fill: #2873ac } 
	</style>
	<g id="OBJECTS">
		<g id="&lt;Group&gt;">
			<path id="&lt;Path&gt;" class="s0" d="m791.43 743.31c0 7.35-177.61 13.31-396.71 13.31c-219.1 0-396.71-5.96-396.71-13.31c0-7.35 177.61-13.31 396.71-13.31c219.1 0 396.71 5.96 396.71 13.31z" />
			<g id="chimey">
				<path id="&lt;Path&gt;" class="s1" d="m607.6 173.01h-229.6v-14.66h229.6v14.66z" />
				<path id="&lt;Path&gt;" class="s2" d="m607.6 158.36h-114.8h-114.8l52.51-69.61h62.28h62.28l52.51 69.61z" />
				<path id="&lt;Path&gt;" class="s3" d="m555.08 88.74h-124.57v-42.74h124.57v42.74z" />
				<path id="&lt;Path&gt;" class="s4" d="m555.08 59.43h-124.57v-13.43h124.57v13.43z" />
				<path id="&lt;Path&gt;" class="s4" d="m607.6 173.01h-114.8v-127.01h62.28v42.74l52.51 69.61v14.66z" />
			</g>
			<g id="kitchen">
				<g id="&lt;Group&gt;">
					<path id="&lt;Compound Path&gt;" fill-rule="evenodd" class="s5" d="m445.99 266.24v117.01c0 3.22-2.63 5.85-5.85 5.85h-77.52c-3.22 0-5.85-2.63-5.85-5.85v-117.01c0-3.22 2.63-5.85 5.85-5.85h77.52c3.22 0 5.85 2.63 5.85 5.85zm-61.43 11.7c0 3.22 2.63 5.85 5.85 5.85h21.94c3.22 0 5.85-2.63 5.85-5.85c0-3.22-2.63-5.85-5.85-5.85h-21.94c-3.22 0-5.85 2.63-5.85 5.85z" />
					<g id="&lt;Group&gt;">
						<path id="&lt;Compound Path&gt;" fill-rule="evenodd" class="s6" d="m441.6 261.85v117.01c0 3.22-2.63 5.85-5.85 5.85h-77.52c-3.22 0-5.85-2.63-5.85-5.85v-117.01c0-3.22 2.63-5.85 5.85-5.85h77.52c3.22 0 5.85 2.63 5.85 5.85zm-27.79 11.7c0-3.22-2.63-5.85-5.85-5.85h-21.94c-3.22 0-5.85 2.63-5.85 5.85c0 3.22 2.63 5.85 5.85 5.85h21.94c3.22 0 5.85-2.63 5.85-5.85z" />
						<path id="&lt;Compound Path&gt;" fill-rule="evenodd" class="s7" d="m426.98 377.4h-59.97c-4.03 0-7.31-3.28-7.31-7.31v-76.06c0-4.03 3.28-7.31 7.31-7.31h59.97c4.03 0 7.31 3.28 7.31 7.31v76.06c0 4.03-3.28 7.31-7.31 7.31zm-59.97-87.76c-2.42 0-4.39 1.97-4.39 4.39v76.06c0 2.42 1.97 4.39 4.39 4.39h59.97c2.42 0 4.39-1.97 4.39-4.39v-76.06c0-2.42-1.97-4.39-4.39-4.39h-59.97z" />
					</g>
					<path id="&lt;Compound Path&gt;" fill-rule="evenodd" class="s5" d="m377.25 291.1v92.15c0 3.22-2.63 5.85-5.85 5.85h-59.97c-3.22 0-5.85-2.63-5.85-5.85v-92.15c0-3.22 2.63-5.85 5.85-5.85h59.97c3.22 0 5.85 2.63 5.85 5.85zm-51.19 8.78c0 3.22 2.63 5.85 5.85 5.85h19.01c3.22 0 5.85-2.63 5.85-5.85c0-3.22-2.63-5.85-5.85-5.85h-19.01c-3.22 0-5.85 2.63-5.85 5.85z" />
					<g id="&lt;Group&gt;">
						<path id="&lt;Compound Path&gt;" fill-rule="evenodd" class="s8" d="m372.86 286.72v92.15c0 3.22-2.63 5.85-5.85 5.85h-59.97c-3.22 0-5.85-2.63-5.85-5.85v-92.15c0-3.22 2.63-5.85 5.85-5.85h59.97c3.22 0 5.85 2.63 5.85 5.85zm-20.48 8.78c0-3.22-2.63-5.85-5.85-5.85h-19.01c-3.22 0-5.85 2.63-5.85 5.85c0 3.22 2.63 5.85 5.85 5.85h19.01c3.22 0 5.85-2.63 5.85-5.85z" />
						<path id="&lt;Compound Path&gt;" fill-rule="evenodd" class="s7" d="m358.23 380.32h-42.42c-4.03 0-7.31-3.28-7.31-7.31v-57.04c0-4.03 3.28-7.31 7.31-7.31h42.42c4.03 0 7.31 3.28 7.31 7.31v57.04c0 4.03-3.28 7.31-7.31 7.31zm-42.42-68.74c-2.42 0-4.39 1.97-4.39 4.39v57.04c0 2.42 1.97 4.39 4.39 4.39h42.42c2.42 0 4.39-1.97 4.39-4.39v-57.04c0-2.42-1.97-4.39-4.39-4.39h-42.42z" />
					</g>
				</g>
				<g id="&lt;Group&gt;">
					<path id="&lt;Path&gt;" class="s9" d="m32.07 734.28h-193.07v-345.18h193.07v345.18z" />
					<path id="&lt;Path&gt;" class="s10" d="m32.07 481.25h-193.07v-2.93h193.07v2.93z" />
					<path id="&lt;Path&gt;" class="s11" d="m-149.3 734.28h-11.7v-349.57h11.7v349.57z" />
					<path id="&lt;Path&gt;" class="s12" d="m32.07 478.32h-193.07v-2.93h193.07v2.93z" />
					<g id="&lt;Group&gt;">
						<path id="&lt;Path&gt;" class="s11" d="m-54.23 443.22c0 5.65-4.58 10.24-10.24 10.24c-5.65 0-10.24-4.58-10.24-10.24c0-5.65 4.58-10.24 10.24-10.24c5.65 0 10.24 4.58 10.24 10.24z" />
						<path id="&lt;Path&gt;" class="s13" d="m-54.23 438.83c0 5.65-4.58 10.24-10.24 10.24c-5.65 0-10.24-4.58-10.24-10.24c0-5.65 4.58-10.24 10.24-10.24c5.65 0 10.24 4.58 10.24 10.24z" />
						<path id="&lt;Path&gt;" class="s14" d="m-55.23 434.44c-1.64 3.46-5.16 5.85-9.24 5.85c-4.08 0-7.6-2.39-9.24-5.85c1.64-3.46 5.16-5.85 9.24-5.85c4.08 0 7.6 2.39 9.24 5.85z" />
					</g>
					<g id="&lt;Group&gt;">
						<path id="&lt;Path&gt;" class="s11" d="m-125.9 507.57c0 5.65-4.58 10.24-10.24 10.24c-5.65 0-10.24-4.58-10.24-10.24c0-5.65 4.58-10.24 10.24-10.24c5.65 0 10.24 4.58 10.24 10.24z" />
						<path id="&lt;Path&gt;" class="s13" d="m-125.9 503.19c0 5.65-4.58 10.24-10.24 10.24c-5.65 0-10.24-4.58-10.24-10.24c0-5.65 4.58-10.24 10.24-10.24c5.65 0 10.24 4.58 10.24 10.24z" />
						<path id="&lt;Path&gt;" class="s14" d="m-126.9 498.8c-1.64 3.46-5.16 5.85-9.24 5.85c-4.08 0-7.6-2.39-9.24-5.85c1.64-3.46 5.16-5.85 9.24-5.85c4.08 0 7.6 2.39 9.24 5.85z" />
					</g>
				</g>
				<g id="&lt;Group&gt;">
					<path id="&lt;Path&gt;" class="s9" d="m324.59 734.28h-292.53v-345.18h292.53v345.18z" />
					<g id="&lt;Group&gt;">
						<path id="&lt;Path&gt;" class="s11" d="m67.17 434.44c0 5.65-4.58 10.24-10.24 10.24c-5.65 0-10.24-4.58-10.24-10.24c0-5.65 4.58-10.24 10.24-10.24c5.65 0 10.24 4.58 10.24 10.24z" />
						<path id="&lt;Path&gt;" class="s13" d="m67.17 430.05c0 5.65-4.58 10.24-10.24 10.24c-5.65 0-10.24-4.58-10.24-10.24c0-5.65 4.58-10.24 10.24-10.24c5.65 0 10.24 4.58 10.24 10.24z" />
						<path id="&lt;Path&gt;" class="s14" d="m66.17 425.67c-1.64 3.46-5.16 5.85-9.24 5.85c-4.08 0-7.6-2.39-9.24-5.85c1.64-3.46 5.16-5.85 9.24-5.85c4.08 0 7.6 2.39 9.24 5.85z" />
					</g>
				</g>
				<path id="&lt;Path&gt;" class="s12" d="m33.53 734.28h-2.93v-329.09h2.93v329.09z" />
				<g id="&lt;Group&gt;">
					<g id="&lt;Group&gt;">
						<path id="&lt;Path&gt;" class="s10" d="m184.18 321.82v48.27h4.39l1.74-1.74l-0.95-0.86l7.49-14.95l7.56 6.91l7.56 6.91l-14.21 8.81l-1.34-1.22l-4.93 4.93h-7.31h-5.85h-5.85h-7.31l-4.93-4.93l-1.34 1.22l-14.21-8.81l7.56-6.91l7.56-6.91l7.49 14.95l-0.95 0.86l1.74 1.74h4.39v-48.27c0-10.12 5.2-29.25 24.86-29.25c21.98 0 27.79 20.09 27.79 30.72h-11.7c-0.02-1.93-0.6-19.01-16.09-19.01c-13.01 0-13.16 16.84-13.16 17.55z" />
						<path id="&lt;Path&gt;" class="s15" d="m219.28 323.28h-5.85c-0.02-1.93-0.6-19.01-16.09-19.01c-13.01 0-13.16 16.84-13.16 17.55v48.27h4.39l1.74-1.74l-0.95-0.86l7.49-14.95l7.56 6.91l7.56 6.91l-14.21 8.81l-1.34-1.22l-4.93 4.93h-7.31h-5.85v-57.04c0-15.6 6.34-23.4 19.01-23.4c14.63 0 21.94 8.29 21.94 24.86z" />
						<path id="&lt;Path&gt;" class="s16" d="m190.31 368.35l6.11 5.59l-2 2l-5.85-5.85l1.74-1.74z" />
						<path id="&lt;Path&gt;" class="s16" d="m168.09 370.09l-5.85 5.85l-2-2l6.11-5.59l1.74 1.74z" />
						<path id="&lt;Path&gt;" class="s16" d="m193.51 371.27l11.37-11.37l7.09 6.44l-14.21 8.81l-4.25-3.88z" />
						<path id="&lt;Path&gt;" class="s16" d="m158.9 375.15l-14.21-8.81l7.09-6.44l11.37 11.37l-4.25 3.88z" />
						<path id="&lt;Path&gt;" class="s1" d="m288.03 384.71h-219.39v-5.85h219.39v5.85z" />
						<path id="&lt;Path&gt;" class="s16" d="m194.42 375.94l-2.93 2.93h-7.31h-5.85h-5.85h-7.31l-2.93-2.93h32.18z" />
					</g>
					<g id="&lt;Group&gt;">
						<g id="&lt;Group&gt;">
							<path id="&lt;Path&gt;" class="s17" d="m117.77 316.68c-0.78 3.88-1.5 11.57-1.04 17.36l3.08 39c0.38 4.81-3.32 5.82-8.22 5.82h-21.54c-4.9 0-8.6-1.01-8.21-5.82l3.05-38.08c0.46-5.79-0.22-13.49-0.97-17.37l-1.12-5.79c-0.92-4.74 2.34-8.99 7.24-8.99h21.54c4.9 0 8.13 4.24 7.18 8.97l-0.99 4.91z" />
							<path id="&lt;Path&gt;" class="s18" d="m116.68 325.81c-0.12 2.66-0.11 6.19 0.05 8.23l3.08 39c0.38 4.81-3.32 5.82-8.22 5.82h-21.54c-4.9 0-8.6-1.01-8.21-5.82l3.05-38.08c0.18-2.28 0.17-6.17 0.03-9.14h31.77z" />
							<g id="&lt;Group&gt;" style="opacity: .6">
								<path id="&lt;Path&gt;" class="s18" d="m108.12 301.34c0 0.8-0.66 1.46-1.46 1.46h-11.7c-0.8 0-1.46-0.66-1.46-1.46v-4.39c0-0.8 0.66-1.46 1.46-1.46h11.7c0.8 0 1.46 0.66 1.46 1.46v4.39z" />
							</g>
							<path id="&lt;Path&gt;" class="s18" d="m105.2 295.49h-8.78v-5.85h8.78v5.85z" />
							<path id="&lt;Path&gt;" class="s18" d="m106.66 289.64c0 0.8-0.66 1.46-1.46 1.46h-8.78c-0.8 0-1.46-0.66-1.46-1.46v-1.46c0-0.8 0.66-1.46 1.46-1.46h8.78c0.8 0 1.46 0.66 1.46 1.46v1.46z" />
						</g>
						<path id="&lt;Path&gt;" class="s19" d="m119.8 373.04c0.38 4.81-3.32 5.82-8.22 5.82h-10.76v-92.15h4.39c0.8 0 1.46 0.66 1.46 1.46v1.46c0 0.8-0.66 1.46-1.46 1.46v4.39h1.46c0.8 0 1.46 0.66 1.46 1.46v4.39c0 0.8-0.66 1.46-1.46 1.46h4.91c4.9 0 8.13 4.24 7.18 8.97l-0.99 4.91c-0.53 2.62-1.02 6.97-1.15 11.3c-0.04 2.19-0.01 4.54 0.11 6.05l3.08 39z" />
						<path id="&lt;Path&gt;" class="s19" d="m119.77 374.47c-0.42 3.58-3.83 4.39-8.2 4.39h-21.54c-4.37 0-7.77-0.81-8.19-4.39h37.92z" />
					</g>
					<g id="&lt;Group&gt;">
						<path id="&lt;Path&gt;" class="s20" d="m280.72 378.86h-32.18v-8.78h32.18v8.78z" />
						<path id="&lt;Path&gt;" class="s21" d="m280.72 370.09h-32.18v-2.93h32.18v2.93z" />
					</g>
				</g>
				<g id="&lt;Group&gt;">
					<path id="&lt;Path&gt;" class="s9" d="m617.12 734.28h-292.53v-345.18h292.53v345.18z" />
					<path id="&lt;Path&gt;" class="s22" d="m617.12 384.71h-292.53v-2.93h292.53v2.93z" />
					<g id="&lt;Group&gt;">
						<path id="&lt;Path&gt;" class="s11" d="m481.1 705.76c0 5.65-4.58 10.24-10.24 10.24c-5.65 0-10.24-4.58-10.24-10.24c0-5.65 4.58-10.24 10.24-10.24c5.65 0 10.24 4.58 10.24 10.24z" />
						<path id="&lt;Path&gt;" class="s13" d="m481.1 701.37c0 5.65-4.58 10.24-10.24 10.24c-5.65 0-10.24-4.58-10.24-10.24c0-5.65 4.58-10.24 10.24-10.24c5.65 0 10.24 4.58 10.24 10.24z" />
						<path id="&lt;Path&gt;" class="s14" d="m480.1 696.98c-1.64 3.46-5.16 5.85-9.24 5.85c-4.08 0-7.6-2.39-9.24-5.85c1.64-3.46 5.16-5.85 9.24-5.85c4.08 0 7.6 2.39 9.24 5.85z" />
					</g>
					<g id="&lt;Group&gt;">
						<path id="&lt;Path&gt;" class="s2" d="m617.12 674.31h-292.53v-269.12h292.53v269.12z" />
						<g id="&lt;Group&gt;">
							<path id="&lt;Path&gt;" class="s23" d="m589.33 633.36h-236.95v-131.64h236.95v131.64z" />
							<path id="&lt;Path&gt;" class="s24" d="m582.02 626.05h-222.32v-117.01h222.32v117.01z" />
							<path id="&lt;Compound Path&gt;" fill-rule="evenodd" class="s25" d="m490.08 633.36h-41.37l131.64-131.64h8.98v32.39l-99.25 99.25zm-137.7-17.7v-28.96l84.98-84.98h28.96l-113.94 113.94zm39.99-113.94h16.55l-56.54 56.54v-16.55l39.99-39.99zm117.26 0h24.82l-131.64 131.64h-24.82l131.64-131.64zm35.31 131.64h-16.55l60.93-60.93v16.55l-44.38 44.38z" />
						</g>
						<g id="&lt;Group&gt;">
							<path id="&lt;Path&gt;" class="s26" d="m617.12 466.62h-292.53v-2.93h292.53v2.93z" />
							<path id="&lt;Path&gt;" class="s26" d="m617.12 674.31h-292.53v-2.93h292.53v2.93z" />
							<path id="&lt;Path&gt;" class="s10" d="m617.12 677.24h-292.53v-2.93h292.53v2.93z" />
							<path id="&lt;Path&gt;" class="s17" d="m617.12 469.54h-292.53v-2.93h292.53v2.93z" />
						</g>
						<g id="&lt;Group&gt;">
							<path id="&lt;Path&gt;" class="s27" d="m583.48 491.48h-225.25c-3.23 0-5.85-2.62-5.85-5.85c0-3.23 2.62-5.85 5.85-5.85h225.25c3.23 0 5.85 2.62 5.85 5.85c0 3.23-2.62 5.85-5.85 5.85z" />
							<path id="&lt;Path&gt;" class="s28" d="m583.48 495.87h-225.25c-3.23 0-5.85-2.62-5.85-5.85c0-3.23 2.62-5.85 5.85-5.85h225.25c3.23 0 5.85 2.62 5.85 5.85c0 3.23-2.62 5.85-5.85 5.85z" />
							<path id="&lt;Path&gt;" class="s29" d="m589.33 485.63h-236.95c0-3.23 2.62-5.85 5.85-5.85h225.25c3.23 0 5.85 2.62 5.85 5.85z" />
						</g>
						<g id="&lt;Group&gt;">
							<path id="&lt;Path&gt;" class="s22" d="m498.65 449.07h-55.58v-26.33h55.58v26.33z" />
							<path id="&lt;Compound Path&gt;" fill-rule="evenodd" class="s30" d="m508.89 428.59h-4.39c-1.62 0-2.93-1.31-2.93-2.93c0-1.62 1.31-2.93 2.93-2.93h4.39c1.62 0 2.93 1.31 2.93 2.93c0 1.62-1.31 2.93-2.93 2.93zm0 10.24h-4.39c-1.62 0-2.93-1.31-2.93-2.93c0-1.62 1.31-2.93 2.93-2.93h4.39c1.62 0 2.93 1.31 2.93 2.93c0 1.62-1.31 2.93-2.93 2.93zm0 10.24h-4.39c-1.62 0-2.93-1.31-2.93-2.93c0-1.62 1.31-2.93 2.93-2.93h4.39c1.62 0 2.93 1.31 2.93 2.93c0 1.62-1.31 2.93-2.93 2.93zm-71.67-20.48h-4.39c-1.62 0-2.93-1.31-2.93-2.93c0-1.62 1.31-2.93 2.93-2.93h4.39c1.62 0 2.93 1.31 2.93 2.93c0 1.62-1.31 2.93-2.93 2.93zm0 10.24h-4.39c-1.62 0-2.93-1.31-2.93-2.93c0-1.62 1.31-2.93 2.93-2.93h4.39c1.62 0 2.93 1.31 2.93 2.93c0 1.62-1.31 2.93-2.93 2.93zm0 10.24h-4.39c-1.62 0-2.93-1.31-2.93-2.93c0-1.62 1.31-2.93 2.93-2.93h4.39c1.62 0 2.93 1.31 2.93 2.93c0 1.62-1.31 2.93-2.93 2.93z" />
							<g id="&lt;Group&gt;">
								<path id="&lt;Path&gt;" class="s28" d="m378.71 440.29c0 7.27-5.89 13.16-13.16 13.16c-7.27 0-13.16-5.89-13.16-13.16c0-7.27 5.89-13.16 13.16-13.16c7.27 0 13.16 5.89 13.16 13.16z" />
								<path id="&lt;Path&gt;" class="s27" d="m378.71 437.37c0 7.27-5.89 13.16-13.16 13.16c-7.27 0-13.16-5.89-13.16-13.16c0-7.27 5.89-13.16 13.16-13.16c7.27 0 13.16 5.89 13.16 13.16z" />
								<path id="&lt;Path&gt;" class="s31" d="m378.71 437.37h-26.33c0-7.27 5.89-13.16 13.16-13.16c7.27 0 13.16 5.89 13.16 13.16z" />
							</g>
							<g id="&lt;Group&gt;">
								<path id="&lt;Path&gt;" class="s28" d="m589.33 440.29c0 7.27-5.89 13.16-13.16 13.16c-7.27 0-13.16-5.89-13.16-13.16c0-7.27 5.89-13.16 13.16-13.16c7.27 0 13.16 5.89 13.16 13.16z" />
								<path id="&lt;Path&gt;" class="s27" d="m589.33 437.37c0 7.27-5.89 13.16-13.16 13.16c-7.27 0-13.16-5.89-13.16-13.16c0-7.27 5.89-13.16 13.16-13.16c7.27 0 13.16 5.89 13.16 13.16z" />
								<path id="&lt;Path&gt;" class="s31" d="m589.33 437.37h-26.33c0-7.27 5.89-13.16 13.16-13.16c7.27 0 13.16 5.89 13.16 13.16z" />
							</g>
						</g>
						<g id="&lt;Group&gt;">
							<path id="&lt;Path&gt;" class="s32" d="m496.99 354c-2.57 0-5.07-1.36-6.4-3.77c-4.3-7.76-6.57-16.57-6.57-25.49c0-29.03 23.62-52.65 52.65-52.65c9.6 0 19 2.61 27.19 7.56c3.46 2.09 4.57 6.58 2.48 10.04c-2.09 3.46-6.58 4.57-10.04 2.48c-5.9-3.57-12.69-5.45-19.63-5.45c-20.97 0-38.03 17.06-38.03 38.03c0 6.44 1.64 12.8 4.74 18.4c1.96 3.53 0.68 7.98-2.85 9.94c-1.12 0.62-2.34 0.92-3.54 0.92z" />
							<path id="&lt;Path&gt;" class="s33" d="m562.58 289.15c0.32 1.21 0.29 2.42-0.09 3.62c-1.99 0.69-4.25 0.56-6.19-0.61c-5.9-3.57-12.69-5.45-19.63-5.45c-20.97 0-38.03 17.06-38.03 38.03c0 6.44 1.64 12.8 4.74 18.4c0.48 0.86 0.76 1.79 0.86 2.71l-7.26 0.83c-3.6-6.5-5.65-13.98-5.65-21.94c0-25.04 20.3-45.34 45.34-45.34c8.56 0 16.57 2.38 23.41 6.5c1.3 0.78 2.13 1.87 2.49 3.25z" />
							<path id="&lt;Path&gt;" class="s32" d="m545.45 315.97c0 4.85-3.93 8.78-8.78 8.78c-4.85 0-8.78-3.93-8.78-8.78c0-4.85 3.93-8.78 8.78-8.78c4.85 0 8.78 3.93 8.78 8.78z" />
							<path id="&lt;Path&gt;" class="s33" d="m536.68 324.74v-17.55c4.85 0 8.78 3.93 8.78 8.78c0 4.85-3.93 8.78-8.78 8.78z" />
							<path id="&lt;Path&gt;" class="s1" d="m585.39 348.03c2.53 6.12 3.94 12.82 3.94 19.86c0 4.81-0.67 9.47-1.9 13.9h-100.06c-1.23-4.42-1.9-9.08-1.9-13.9c0-28.68 23.25-51.92 51.92-51.92c12.02 0 23.07 4.09 31.87 10.95l10.38-10.38l18.62 18.62l-12.88 12.88z" />
							<path id="&lt;Path&gt;" class="s10" d="m537.41 315.97c11.59 0 22.28 3.82 30.92 10.24h-61.88c8.64-6.43 19.36-10.24 30.96-10.24z" />
							<path id="&lt;Path&gt;" class="s4" d="m598.27 335.15l-12.88 12.88c2.53 6.12 3.94 12.82 3.94 19.86c0 4.81-0.67 9.47-1.9 13.9h-50.76v-65.8c0.24 0 0.49-0.02 0.73-0.02c12.02 0 23.07 4.09 31.87 10.95l10.38-10.38l18.62 18.62z" />
							<path id="&lt;Path&gt;" class="s4" d="m569.28 326.91l10.38-10.38l18.62 18.62l-12.88 12.88c-2.63-7.88-8-14.92-16.11-21.12z" />
							<path id="&lt;Path&gt;" class="s4" d="m598.27 335.15l-12.88 12.88c-1.41-4.23-3.89-8.14-6.47-11.41l10.41-10.41l8.94 8.94z" />
							<path id="&lt;Path&gt;" class="s4" d="m588.43 377.4c-0.28 1.48-0.59 2.95-0.99 4.39h-100.06c-0.4-1.44-0.71-2.91-0.99-4.39h102.04z" />
						</g>
					</g>
					<path id="&lt;Path&gt;" class="s12" d="m326.06 734.28h-2.93v-329.09h2.93v329.09z" />
				</g>
				<g id="&lt;Group&gt;">
					<path id="&lt;Path&gt;" class="s9" d="m763.38 734.28h-146.26v-345.18h146.26v345.18z" />
					<path id="&lt;Path&gt;" class="s9" d="m909.65 734.28h-146.26v-345.18h146.26v345.18z" />
					<path id="&lt;Path&gt;" class="s10" d="m909.65 481.25h-292.53v-2.93h292.53v2.93z" />
					<path id="&lt;Path&gt;" class="s12" d="m909.65 478.32h-292.53v-2.93h292.53v2.93z" />
					<path id="&lt;Path&gt;" class="s12" d="m618.58 734.28h-2.93v-329.09h2.93v329.09z" />
					<path id="&lt;Path&gt;" class="s12" d="m764.85 734.28h-2.93v-255.96h2.93v255.96z" />
					<g id="&lt;Group&gt;">
						<path id="&lt;Path&gt;" class="s11" d="m773.62 444.68c0 5.65-4.58 10.24-10.24 10.24c-5.65 0-10.24-4.58-10.24-10.24c0-5.65 4.58-10.24 10.24-10.24c5.65 0 10.24 4.58 10.24 10.24z" />
						<path id="&lt;Path&gt;" class="s13" d="m773.62 440.29c0 5.65-4.58 10.24-10.24 10.24c-5.65 0-10.24-4.58-10.24-10.24c0-5.65 4.58-10.24 10.24-10.24c5.65 0 10.24 4.58 10.24 10.24z" />
						<path id="&lt;Path&gt;" class="s14" d="m772.62 435.9c-1.64 3.46-5.16 5.85-9.24 5.85c-4.08 0-7.6-2.39-9.24-5.85c1.64-3.46 5.16-5.85 9.24-5.85c4.08 0 7.6 2.39 9.24 5.85z" />
					</g>
					<g id="&lt;Group&gt;">
						<path id="&lt;Path&gt;" class="s11" d="m747.3 507.57c0 5.65-4.58 10.24-10.24 10.24c-5.65 0-10.24-4.58-10.24-10.24c0-5.65 4.58-10.24 10.24-10.24c5.65 0 10.24 4.58 10.24 10.24z" />
						<path id="&lt;Path&gt;" class="s13" d="m747.3 503.19c0 5.65-4.58 10.24-10.24 10.24c-5.65 0-10.24-4.58-10.24-10.24c0-5.65 4.58-10.24 10.24-10.24c5.65 0 10.24 4.58 10.24 10.24z" />
						<path id="&lt;Path&gt;" class="s14" d="m746.3 498.8c-1.64 3.46-5.16 5.85-9.24 5.85c-4.08 0-7.6-2.39-9.24-5.85c1.64-3.46 5.16-5.85 9.24-5.85c4.08 0 7.6 2.39 9.24 5.85z" />
					</g>
					<g id="&lt;Group&gt;">
						<path id="&lt;Path&gt;" class="s11" d="m799.95 507.57c0 5.65-4.58 10.24-10.24 10.24c-5.65 0-10.24-4.58-10.24-10.24c0-5.65 4.58-10.24 10.24-10.24c5.65 0 10.24 4.58 10.24 10.24z" />
						<path id="&lt;Path&gt;" class="s13" d="m799.95 503.19c0 5.65-4.58 10.24-10.24 10.24c-5.65 0-10.24-4.58-10.24-10.24c0-5.65 4.58-10.24 10.24-10.24c5.65 0 10.24 4.58 10.24 10.24z" />
						<path id="&lt;Path&gt;" class="s14" d="m798.95 498.8c-1.64 3.46-5.16 5.85-9.24 5.85c-4.08 0-7.6-2.39-9.24-5.85c1.64-3.46 5.16-5.85 9.24-5.85c4.08 0 7.6 2.39 9.24 5.85z" />
					</g>
				</g>
				<g id="&lt;Group&gt;">
					<path id="&lt;Path&gt;" class="s34" d="m924.27 405.19h-1085.27v-20.48h1085.27v20.48z" />
					<path id="&lt;Path&gt;" class="s35" d="m924.27 392.02h-1085.27v-7.31h1085.27v7.31z" />
					<path id="&lt;Path&gt;" class="s11" d="m909.65 411.04h-1070.65v-5.85h1070.65v5.85z" />
					<path id="&lt;Path&gt;" class="s11" d="m909.65 728.43v5.85h-1070.65v-5.85h1070.65z" />
				</g>
			</g>
			<g id="&lt;Group&gt;">
				<g id="&lt;Group&gt;">
					<path id="&lt;Path&gt;" class="s36" d="m450.58 736.37l68.85-318.52h13.46l-68.85 318.52h-13.46z" />
					<path id="&lt;Path&gt;" class="s36" d="m538.99 736.37l68.85-318.52h13.46l-68.85 318.52h-13.46z" />
					<path id="&lt;Path&gt;" class="s36" d="m601.23 479.46h-88.41l2.15-9.93h88.41l-2.15 9.93z" />
					<path id="&lt;Path&gt;" class="s36" d="m586.39 548.01h-88.41l2.15-9.93h88.41l-2.15 9.93z" />
					<path id="&lt;Path&gt;" class="s36" d="m571.55 616.56h-88.41l2.15-9.93h88.41l-2.15 9.93z" />
					<path id="&lt;Path&gt;" class="s36" d="m556.7 685.12h-88.41l2.15-9.93h88.41l-2.15 9.93z" />
				</g>
				<path id="&lt;Path&gt;" class="s37" d="m520.79 417.85h100.51v6.44h-100.51v-6.44z" />
				<g id="&lt;Group&gt;">
					<path id="&lt;Path&gt;" class="s38" d="m706.53 736.37l-100.42-318.52h13.46l100.42 318.52h-13.46z" />
					<path id="&lt;Path&gt;" class="s38" d="m618.12 736.37l-100.42-318.52h13.46l100.42 318.52h-13.46z" />
					<path id="&lt;Path&gt;" class="s38" d="m540.74 469.52h88.41l3.13 9.93h-88.41l-3.13-9.93z" />
					<path id="&lt;Path&gt;" class="s38" d="m562.38 538.08h88.41l3.13 9.93h-88.41l-3.13-9.93z" />
					<path id="&lt;Path&gt;" class="s38" d="m584.02 606.63h88.41l3.13 9.93h-88.41l-3.13-9.93z" />
					<path id="&lt;Path&gt;" class="s38" d="m605.65 675.19h88.41l3.13 9.93h-88.41l-3.13-9.93z" />
				</g>
			</g>
			<g id="&lt;Group&gt;">
				<g id="&lt;Group&gt;">
					<path id="&lt;Path&gt;" class="s39" d="m546.87 125.64c-0.27-0.59-3.59-4.34-6.98-5.94c-3.39-1.6-4.37-2.99-6.71-5.85c-2.34-2.85-1.43-6.54-1.33-11.01c0.1-4.46-0.45-5.64-0.92-6.51c-0.47-0.87-0.44-3.67-0.21-4.22c0.23-0.55 8.95 1.99 10.86 3.14c1.91 1.16 7.61 8.41 8.67 10.61c0.71 1.46 2.59 5.85 5.65 13.17l-9.03 6.61z" />
					<path id="&lt;Path&gt;" class="s40" d="m679.7 199.65c6.46 41.5 0.58 55-17.64 40.5c-11.35-9.04-34.81-27.86-70.37-56.47l-51.11-61.12c5.26-5.23 10.22-7.9 14.89-8.01l54.72 48.2c44.62 17.86 67.79 30.16 69.51 36.91z" />
					<path id="&lt;Path&gt;" class="s41" d="m688.07 654.91v20.16h-27c-2.58-5.36 0.41-9.1 8.94-11.21l1.88-8.95h16.18z" />
					<path id="&lt;Path&gt;" class="s41" d="m640.52 654.91v20.16h-26.76c0.77-5.17 3.75-8.91 8.94-11.21l2.55-8.95h15.28z" />
					<path id="&lt;Path&gt;" class="s42" d="m681.93 342.03c3.41 42.14 5.17 79.85 5.29 113.12c0.12 33.28 1.17 101.31 3.15 204.1h-20.16c-13.86-89.63-23.3-145.15-28.34-166.54c-5.04-21.39-14.1-71.42-27.2-150.09l67.25-0.6z" />
					<path id="&lt;Path&gt;" class="s42" d="m648.68 401.88c-5.9 63.54-9.1 100.29-9.6 110.28c-0.5 9.98 0.32 58.99 2.48 147.02c-12.59 0.34-18.89 0.34-18.89 0c0-0.51-25.81-136.16-28.12-173.06c-1.37-21.98-6.6-33.72-8.59-55.04c-1.35-14.48 0.17-42.8 0.04-45.21c-0.44-8.31 1.63-19.39 6.19-33.27l33.34-3.2l23.14 52.48z" />
					<path id="&lt;Path&gt;" class="s39" d="m463.95 144.44c-0.39-0.52-4.39-3.54-8.02-4.44c-3.64-0.89-4.87-2.07-7.74-4.4c-2.86-2.33-7.16-2.98-7.95-7.38c-0.79-4.4 0.79-5.71 5.37-12.01c0.58-0.8 7.17-1.98 9.27-1.23c2.1 0.75 6.98 7.46 8.45 9.4c0.98 1.29 3.7 5.22 8.15 11.78l-7.54 8.27z" />
					<path id="&lt;Path&gt;" class="s39" d="m638.21 130.34c7.7 5.03 12.12 13.8 13.28 26.3c-0.29 6.88-0.54 13.2-0.76 18.94c-0.22 5.74 0.76 11.92 2.94 18.53l-30.77 12.08c-0.74-13.23-1.43-20.5-2.06-21.8c-0.95-1.95-6.43-2.97-10.62-3.34c-4.19-0.37-8.71-1.06-8.66-5.55c0.05-4.49-0.85-11.01-0.83-13.27c0.02-2.26-3.53-2.3-4.16-3.92c-0.63-1.62 4.59-6.41 5.62-12.53c0.69-4.08 1.58-8.81 2.68-14.18c1.16-4.72 3.15-7.93 5.97-9.62c10.54 0.54 19.66 3.33 27.36 8.36z" />
					<path id="&lt;Path&gt;" class="s43" d="m619.15 131.75c-2.9-0.35-6.76-3-11.23-3.04c-2.84-0.03-3.1-7.43 1.74-12.54c2.77-2.93 6.25-1 9.68-2.5c9.41-4.1 27.16-3.91 33.16 9.39c7.93 3.31 12.08 8.09 12.44 14.34c0.55 9.37-1.48 13.01-6.02 19.31c-3.06 4.25-5.79 10.54-8.18 18.86c-3.72 0.24-7.41 0.24-11.07-0.02c-5.48-0.38-8.12-10.13-10.34-14.03l-11.42-3.96l-3.55 0.28c-0.58-5.95-0.75-10.77-0.49-14.47c0.26-3.7 2.02-7.58 5.29-11.63z" />
					<path id="&lt;Path&gt;" class="s40" d="m675.19 194.55c9.04 9.04 12.65 23.5 12.07 95.46c-0.1 12.07-0.62 37.45-1.58 76.15c-12.8 5.12-28.07 7.93-45.81 8.43c-30.54 0.85-47.95-3.72-52.25-13.71c0.7-6.89-1.77-103.64-1.07-124.3c0.47-13.78 5.48-26.75 15.04-38.91c11.07-2.52 17.93-3.76 20.56-3.71c2.84 0.05 6.07-0.01 8.77-0.37c4.3-0.57 10.84-1.66 19.62-3.26c11.76-1.85 19.97-0.44 24.64 4.23z" />
					<path id="&lt;Path&gt;" class="s40" d="m610.95 198.17c10.07-0.38 23.55 34.08-11.34 35.59c-18.63 0.81-50.67-10.45-96.1-33.77l-46.33-57.33c4.12-6.17 8.45-9.77 13-10.81l47.3 43.94c46.24 15.52 77.39 22.98 93.47 22.37z" />
				</g>
				<path id="&lt;Path&gt;" class="s42" d="m586.42 289.75c1.24 9.87 3.88 9.32 6.02 9.27c12.26-0.3 21.15-36.18 22.23-54.26c1.33-22.45-0.47-38.7-5.42-48.75l8.96-1.66c-0.03 5.95 3.87 11.16 11.69 15.63c6.97 3.98 29.54 3.02 30.84-6.91c0.86-6.62-0.87-11.03-5.19-13.21l9.47-0.07c6.3 6.72 11.74 16.8 16.33 30.23c7.66 22.42 5.52 35.19 6.6 42.15c1.08 6.96 0.78 125.27-0.64 133.97c-0.95 5.8-1.21 14.11-0.77 24.94l-100.53-35.2c-1.33-17.45-2-32.07-2-43.84c0-19.66 0.8-37.09 2.41-52.29z" />
				<path id="&lt;Path&gt;" class="s44" d="m604.89 131.59c-11.64-5.69-17.58-12.45-17.84-20.28c-0.38-11.74 20.46-13.32 27.46-10.59c6.12 2.39 13.46 8.24 22.02 17.54l-31.64 13.33z" />
				<path id="&lt;Path&gt;" class="s42" d="m626.53 109.91c22.84-4.05 38.8 9.15 41.34 26.79c1.69 11.76-2.13 20.89-11.44 27.37c-10.68-0.65-20.74-3.7-30.17-9.15c-9.91-5.72-17.03-13.5-21.36-23.33c3.17-12.46 10.38-19.68 21.64-21.68z" />
				<path id="&lt;Path&gt;" class="s39" d="m611.79 153.81c3.15 0.15 5.1 0.15 5.83 0c1.1-0.22 2.87-4.19 5.95-4.63c3.09-0.44 5.42-0.04 5.73 3.75c0.31 3.79-0.96 5.6-4.2 9.11c-2.86 3.09-3.79 6.4-7.98 5.92c-4.19-0.48-3.44-5.42-3.44-6.21c0-0.52-0.9-1.6-2.71-3.22l0.82-4.72z" />
				<path id="&lt;Path&gt;" class="s45" d="m618.15 643.05h25l-1.59 16.14h-18.89l-4.53-16.14z" />
				<path id="&lt;Path&gt;" class="s45" d="m666.52 643.05h25.47l-1.61 16.21h-20.16l-3.7-16.21z" />
				<path id="&lt;Path&gt;" class="s44" d="m680.55 405.19l-1.18 35.34l-19.82 0.86l-3.03-35.42l24.03-0.78z" />
				<path id="&lt;Path&gt;" class="s44" d="m625.67 405.19l-3.18 35.34l-19.82 0.86l-3.03-35.42l26.03-0.78z" />
			</g>
		</g>
	</g>
</svg>