<svg xmlns="http://www.w3.org/2000/svg" version="1.1" xmlnsXlink="http://www.w3.org/1999/xlink" xmlnsSvgjs="http://svgjs.com/svgjs" width="1440" height="560" preserveAspectRatio="none" viewBox="0 0 1440 560">
    <g mask="url(&quot;#SvgjsMask3961&quot;)" fill="none">
        <rect width="1440" height="560" x="0" y="0" fill="url(#SvgjsLinearGradient3962)"></rect>
        <rect width="156" height="156" clip-path="url(&quot;#SvgjsClipPath3963&quot;)" x="133.04" y="250.7" fill="url(#SvgjsPattern3964)" transform="rotate(295.12, 211.04, 328.7)"></rect>
        <circle r="46.666666666666664" cx="1244" cy="380.89" stroke="rgba(127, 94, 224, 1)" stroke-width="2.53" stroke-dasharray="4, 4"></circle>
        <rect width="169.67999999999998" height="169.67999999999998" clip-path="url(&quot;#SvgjsClipPath3965&quot;)" x="590.95" y="272.73" fill="url(#SvgjsPattern3966)" transform="rotate(181.1, 675.79, 357.57)"></rect>
        <rect width="77.4" height="77.4" clip-path="url(&quot;#SvgjsClipPath3967&quot;)" x="941.54" y="464.92" fill="url(#SvgjsPattern3968)" transform="rotate(289.37, 980.24, 503.62)"></rect>
        <rect width="168" height="168" clip-path="url(&quot;#SvgjsClipPath3969&quot;)" x="1066.62" y="68.34" fill="url(#SvgjsPattern3970)" transform="rotate(139.67, 1150.62, 152.34)"></rect>
        <rect width="61.2" height="61.2" clip-path="url(&quot;#SvgjsClipPath3971&quot;)" x="740.44" y="223.22" fill="url(#SvgjsPattern3972)" transform="rotate(210.52, 771.04, 253.82)"></rect>
        <circle r="53.34306051954296" cx="913.61" cy="147.16" stroke="rgba(82, 31, 171, 1)" stroke-width="2.41" stroke-dasharray="4, 4"></circle>
        <path d="M1096.96 445.36a5.6 5.6 0 1 0-6.77 8.93 5.6 5.6 0 1 0 6.77-8.93zM1087.29 458.11a5.6 5.6 0 1 0-6.76 8.93 5.6 5.6 0 1 0 6.76-8.93zM1077.63 470.86a5.6 5.6 0 1 0-6.77 8.93 5.6 5.6 0 1 0 6.77-8.93zM1067.96 483.61a5.6 5.6 0 1 0-6.77 8.93 5.6 5.6 0 1 0 6.77-8.93zM1103.54 410.2a5.6 5.6 0 1 0-6.76 8.92 5.6 5.6 0 1 0 6.76-8.92zM1093.88 422.95a5.6 5.6 0 1 0-6.77 8.92 5.6 5.6 0 1 0 6.77-8.92zM1084.21 435.7a5.6 5.6 0 1 0-6.77 8.92 5.6 5.6 0 1 0 6.77-8.92zM1074.54 448.45a5.6 5.6 0 1 0-6.76 8.92 5.6 5.6 0 1 0 6.76-8.92zM1110.13 375.03a5.6 5.6 0 1 0-6.77 8.93 5.6 5.6 0 1 0 6.77-8.93zM1100.46 387.78a5.6 5.6 0 1 0-6.76 8.93 5.6 5.6 0 1 0 6.76-8.93zM1090.8 400.53a5.6 5.6 0 1 0-6.77 8.92 5.6 5.6 0 1 0 6.77-8.92zM1081.13 413.28a5.6 5.6 0 1 0-6.77 8.92 5.6 5.6 0 1 0 6.77-8.92z" fill="rgba(156, 53, 231, 1)"></path>
        <circle r="51.12332168421807" cx="1419.94" cy="244.43" fill="rgba(82, 31, 171, 1)"></circle>
        <rect width="216" height="216" clip-path="url(&quot;#SvgjsClipPath3973&quot;)" x="193.22" y="435.95" fill="url(#SvgjsPattern3974)" transform="rotate(38.28, 301.22, 543.95)"></rect>
        <path d="M912.95 21.77a5.6 5.6 0 1 0-11.06-1.78 5.6 5.6 0 1 0 11.06 1.78zM897.15 19.23a5.6 5.6 0 1 0-11.06-1.77 5.6 5.6 0 1 0 11.06 1.77zM881.35 16.7a5.6 5.6 0 1 0-11.06-1.78 5.6 5.6 0 1 0 11.06 1.78zM865.56 14.16a5.6 5.6 0 1 0-11.06-1.77 5.6 5.6 0 1 0 11.06 1.77zM947.08 11.04a5.6 5.6 0 1 0-11.06-1.77 5.6 5.6 0 1 0 11.06 1.77zM931.28 8.51a5.6 5.6 0 1 0-11.06-1.78 5.6 5.6 0 1 0 11.06 1.78zM915.48 5.97a5.6 5.6 0 1 0-11.05-1.77 5.6 5.6 0 1 0 11.05 1.77zM899.69 3.44a5.6 5.6 0 1 0-11.06-1.78 5.6 5.6 0 1 0 11.06 1.78z" fill="rgba(127, 94, 224, 1)"></path>
        <rect width="103" height="103" clip-path="url(&quot;#SvgjsClipPath3975&quot;)" x="361.43" y="158.64" fill="url(#SvgjsPattern3976)" transform="rotate(15.86, 412.93, 210.14)"></rect>
    </g>
    <defs>
        <mask id="SvgjsMask3961">
            <rect width="1440" height="560" fill="#ffffff"></rect>
        </mask>
        <linearGradient x1="15.28%" y1="-39.29%" x2="84.72%" y2="139.29%" gradientUnits="userSpaceOnUse" id="SvgjsLinearGradient3962">
            <stop stop-color="rgba(9, 8, 89, 1)" offset="0"></stop>
            <stop stop-color="rgba(114, 44, 167, 1)" offset="1"></stop>
        </linearGradient>
        <pattern x="0" y="0" width="156" height="6" patternUnits="userSpaceOnUse" id="SvgjsPattern3964">
            <rect width="156" height="3" x="0" y="0" fill="rgba(26, 58, 174, 1)"></rect>
            <rect width="156" height="3" x="0" y="3" fill="rgba(0, 0, 0, 0)"></rect>
        </pattern>
        <clipPath id="SvgjsClipPath3963">
            <circle r="39" cx="211.04" cy="328.7"></circle>
        </clipPath>
        <pattern x="0" y="0" width="6.06" height="6.06" patternUnits="userSpaceOnUse" id="SvgjsPattern3966">
            <path d="M0 6.06L3.03 0L6.06 6.06" stroke="rgba(26, 58, 174, 1)" fill="none"></path>
        </pattern>
        <clipPath id="SvgjsClipPath3965">
            <circle r="42.419999999999995" cx="675.79" cy="357.57"></circle>
        </clipPath>
        <pattern x="0" y="0" width="77.4" height="7.74" patternUnits="userSpaceOnUse" id="SvgjsPattern3968">
            <rect width="77.4" height="3.87" x="0" y="0" fill="rgba(156, 53, 231, 1)"></rect>
            <rect width="77.4" height="3.87" x="0" y="3.87" fill="rgba(0, 0, 0, 0)"></rect>
        </pattern>
        <clipPath id="SvgjsClipPath3967">
            <circle r="19.35" cx="980.24" cy="503.62"></circle>
        </clipPath>
        <pattern x="0" y="0" width="6" height="6" patternUnits="userSpaceOnUse" id="SvgjsPattern3970">
            <path d="M0 6L3 0L6 6" stroke="rgba(26, 58, 174, 1)" fill="none"></path>
        </pattern>
        <clipPath id="SvgjsClipPath3969">
            <circle r="42" cx="1150.62" cy="152.34"></circle>
        </clipPath>
        <pattern x="0" y="0" width="6.12" height="6.12" patternUnits="userSpaceOnUse" id="SvgjsPattern3972">
            <path d="M0 6.12L3.06 0L6.12 6.12" stroke="rgba(127, 94, 224, 1)" fill="none"></path>
        </pattern>
        <clipPath id="SvgjsClipPath3971">
            <circle r="15.3" cx="771.04" cy="253.82"></circle>
        </clipPath>
        <pattern x="0" y="0" width="6" height="6" patternUnits="userSpaceOnUse" id="SvgjsPattern3974">
            <path d="M3 1L3 5M1 3L5 3" stroke="rgba(82, 31, 171, 1)" fill="none" stroke-width="1.77"></path>
        </pattern>
        <clipPath id="SvgjsClipPath3973">
            <circle r="54" cx="301.22" cy="543.95"></circle>
        </clipPath>
        <pattern x="0" y="0" width="10.3" height="10.3" patternUnits="userSpaceOnUse" id="SvgjsPattern3976">
            <path d="M0 10.3L5.15 0L10.3 10.3" stroke="rgba(26, 58, 174, 1)" fill="none"></path>
        </pattern>
        <clipPath id="SvgjsClipPath3975">
            <circle r="25.75" cx="412.93" cy="210.14"></circle>
        </clipPath>
    </defs>
</svg>